<mxfile host="Electron" modified="2025-04-28T13:57:55.451Z" agent="Mozilla/5.0 (X11; Linux x86_64) AppleWebKit/537.36 (KHTML, like Gecko) draw.io/21.5.1 Chrome/112.0.5615.204 Electron/24.6.0 Safari/537.36" etag="vKHLsJlUjzRJ61TO1FK5" version="21.5.1" type="device">
  <diagram name="Page-1" id="q1ltSGR0RNJZNUf3t-mk">
    <mxGraphModel dx="2038" dy="1128" grid="1" gridSize="10" guides="1" tooltips="1" connect="1" arrows="1" fold="1" page="1" pageScale="1" pageWidth="1" pageHeight="20" math="0" shadow="0">
      <root>
        <mxCell id="0" />
        <mxCell id="1" parent="0" />
        <mxCell id="U7M4uMnLPEk6Xa6hT6ow-107" value="" style="rounded=0;whiteSpace=wrap;html=1;dashed=1;strokeWidth=3;fillColor=#dae8fc;strokeColor=#6c8ebf;" vertex="1" parent="1">
          <mxGeometry x="-56" y="-90" width="36" height="130" as="geometry" />
        </mxCell>
        <mxCell id="U7M4uMnLPEk6Xa6hT6ow-105" value="" style="rounded=0;whiteSpace=wrap;html=1;dashed=1;strokeWidth=3;fillColor=#dae8fc;strokeColor=#6c8ebf;" vertex="1" parent="1">
          <mxGeometry x="-280" y="-114" width="210" height="190" as="geometry" />
        </mxCell>
        <mxCell id="U7M4uMnLPEk6Xa6hT6ow-102" value="" style="rounded=0;whiteSpace=wrap;html=1;dashed=1;strokeWidth=3;fillColor=#dae8fc;strokeColor=#6c8ebf;" vertex="1" parent="1">
          <mxGeometry x="-242" y="-181.5" width="138" height="61.5" as="geometry" />
        </mxCell>
        <mxCell id="U7M4uMnLPEk6Xa6hT6ow-101" value="" style="rounded=0;whiteSpace=wrap;html=1;dashed=1;strokeWidth=3;fillColor=#dae8fc;strokeColor=#6c8ebf;" vertex="1" parent="1">
          <mxGeometry x="-242" y="-243" width="138" height="63" as="geometry" />
        </mxCell>
        <mxCell id="U7M4uMnLPEk6Xa6hT6ow-99" value="" style="rounded=0;whiteSpace=wrap;html=1;dashed=1;strokeWidth=3;fillColor=#dae8fc;strokeColor=#6c8ebf;" vertex="1" parent="1">
          <mxGeometry x="-508" y="-245" width="138" height="81" as="geometry" />
        </mxCell>
        <mxCell id="U7M4uMnLPEk6Xa6hT6ow-97" value="" style="rounded=0;whiteSpace=wrap;html=1;dashed=1;strokeWidth=3;fillColor=#dae8fc;strokeColor=#6c8ebf;" vertex="1" parent="1">
          <mxGeometry x="-515" y="-150" width="182" height="257" as="geometry" />
        </mxCell>
        <mxCell id="U7M4uMnLPEk6Xa6hT6ow-93" value="" style="rounded=0;whiteSpace=wrap;html=1;dashed=1;strokeWidth=3;fillColor=#dae8fc;strokeColor=#6c8ebf;" vertex="1" parent="1">
          <mxGeometry x="-600" y="-130" width="79" height="230" as="geometry" />
        </mxCell>
        <mxCell id="U7M4uMnLPEk6Xa6hT6ow-3" style="rounded=0;orthogonalLoop=1;jettySize=auto;html=1;exitX=0.5;exitY=1;exitDx=0;exitDy=0;entryX=0.417;entryY=0.001;entryDx=0;entryDy=0;startArrow=classic;startFill=1;entryPerimeter=0;" edge="1" parent="1" source="U7M4uMnLPEk6Xa6hT6ow-6" target="U7M4uMnLPEk6Xa6hT6ow-51">
          <mxGeometry relative="1" as="geometry">
            <mxPoint x="-432" y="-155" as="sourcePoint" />
            <mxPoint x="-431" y="-120" as="targetPoint" />
          </mxGeometry>
        </mxCell>
        <mxCell id="U7M4uMnLPEk6Xa6hT6ow-4" value="" style="endArrow=classic;html=1;rounded=0;exitX=0.114;exitY=0.003;exitDx=0;exitDy=0;exitPerimeter=0;" edge="1" parent="1" source="U7M4uMnLPEk6Xa6hT6ow-51">
          <mxGeometry width="50" height="50" relative="1" as="geometry">
            <mxPoint x="-500" y="-150" as="sourcePoint" />
            <mxPoint x="-560" y="-170" as="targetPoint" />
            <Array as="points">
              <mxPoint x="-490" y="-160" />
              <mxPoint x="-490" y="-170" />
              <mxPoint x="-500" y="-170" />
            </Array>
          </mxGeometry>
        </mxCell>
        <mxCell id="U7M4uMnLPEk6Xa6hT6ow-5" style="edgeStyle=orthogonalEdgeStyle;rounded=0;orthogonalLoop=1;jettySize=auto;html=1;exitX=0.25;exitY=1;exitDx=0;exitDy=0;entryX=0.25;entryY=0;entryDx=0;entryDy=0;startArrow=classic;startFill=1;" edge="1" parent="1" source="U7M4uMnLPEk6Xa6hT6ow-6" target="U7M4uMnLPEk6Xa6hT6ow-23">
          <mxGeometry relative="1" as="geometry" />
        </mxCell>
        <mxCell id="U7M4uMnLPEk6Xa6hT6ow-6" value="&lt;font style=&quot;font-size: 19px;&quot;&gt;&lt;b&gt;Route&lt;br&gt;Compute&lt;/b&gt;&lt;/font&gt;" style="rounded=0;whiteSpace=wrap;html=1;fillColor=#f5f5f5;fontColor=#333333;strokeColor=#666666;strokeWidth=2;" vertex="1" parent="1">
          <mxGeometry x="-498" y="-235" width="120" height="60" as="geometry" />
        </mxCell>
        <mxCell id="U7M4uMnLPEk6Xa6hT6ow-7" style="edgeStyle=orthogonalEdgeStyle;rounded=0;orthogonalLoop=1;jettySize=auto;html=1;exitX=0;exitY=0.5;exitDx=0;exitDy=0;entryX=0.858;entryY=0.004;entryDx=0;entryDy=0;entryPerimeter=0;" edge="1" parent="1" source="U7M4uMnLPEk6Xa6hT6ow-8" target="U7M4uMnLPEk6Xa6hT6ow-23">
          <mxGeometry relative="1" as="geometry" />
        </mxCell>
        <mxCell id="U7M4uMnLPEk6Xa6hT6ow-8" value="&lt;font style=&quot;font-size: 19px;&quot;&gt;&lt;b&gt;VC&lt;br&gt;Allocator&lt;/b&gt;&lt;/font&gt;" style="rounded=0;whiteSpace=wrap;html=1;fillColor=#f5f5f5;fontColor=#333333;strokeColor=#666666;strokeWidth=2;" vertex="1" parent="1">
          <mxGeometry x="-233" y="-233" width="120" height="50" as="geometry" />
        </mxCell>
        <mxCell id="U7M4uMnLPEk6Xa6hT6ow-9" style="edgeStyle=orthogonalEdgeStyle;rounded=0;orthogonalLoop=1;jettySize=auto;html=1;exitX=0;exitY=0.458;exitDx=0;exitDy=0;exitPerimeter=0;" edge="1" parent="1" source="U7M4uMnLPEk6Xa6hT6ow-11">
          <mxGeometry relative="1" as="geometry">
            <mxPoint x="-354" y="-140" as="targetPoint" />
            <Array as="points">
              <mxPoint x="-354" y="-160" />
            </Array>
          </mxGeometry>
        </mxCell>
        <mxCell id="U7M4uMnLPEk6Xa6hT6ow-10" style="rounded=0;orthogonalLoop=1;jettySize=auto;html=1;exitX=0.5;exitY=1;exitDx=0;exitDy=0;entryX=0.5;entryY=0;entryDx=0;entryDy=0;startArrow=classic;startFill=1;" edge="1" parent="1" source="U7M4uMnLPEk6Xa6hT6ow-11" target="U7M4uMnLPEk6Xa6hT6ow-13">
          <mxGeometry relative="1" as="geometry" />
        </mxCell>
        <mxCell id="U7M4uMnLPEk6Xa6hT6ow-11" value="&lt;font style=&quot;font-size: 19px;&quot;&gt;&lt;b&gt;Switch&lt;br&gt;Allocator&lt;/b&gt;&lt;/font&gt;" style="rounded=0;whiteSpace=wrap;html=1;fillColor=#f5f5f5;fontColor=#333333;strokeColor=#666666;strokeWidth=2;" vertex="1" parent="1">
          <mxGeometry x="-233" y="-183" width="120" height="50" as="geometry" />
        </mxCell>
        <mxCell id="U7M4uMnLPEk6Xa6hT6ow-12" value="" style="group" vertex="1" connectable="0" parent="1">
          <mxGeometry x="-266" y="-110" width="187" height="180" as="geometry" />
        </mxCell>
        <mxCell id="U7M4uMnLPEk6Xa6hT6ow-13" value="" style="rounded=1;whiteSpace=wrap;html=1;" vertex="1" parent="U7M4uMnLPEk6Xa6hT6ow-12">
          <mxGeometry width="187" height="180" as="geometry" />
        </mxCell>
        <mxCell id="U7M4uMnLPEk6Xa6hT6ow-14" value="" style="group;strokeWidth=6;" vertex="1" connectable="0" parent="U7M4uMnLPEk6Xa6hT6ow-12">
          <mxGeometry x="23" y="40" width="137" height="100" as="geometry" />
        </mxCell>
        <mxCell id="U7M4uMnLPEk6Xa6hT6ow-15" value="" style="endArrow=none;html=1;rounded=0;" edge="1" parent="U7M4uMnLPEk6Xa6hT6ow-14">
          <mxGeometry width="50" height="50" relative="1" as="geometry">
            <mxPoint x="34.25" y="100" as="sourcePoint" />
            <mxPoint x="102.75" as="targetPoint" />
          </mxGeometry>
        </mxCell>
        <mxCell id="U7M4uMnLPEk6Xa6hT6ow-16" value="" style="endArrow=none;html=1;rounded=0;" edge="1" parent="U7M4uMnLPEk6Xa6hT6ow-14">
          <mxGeometry width="50" height="50" relative="1" as="geometry">
            <mxPoint x="34.25" as="sourcePoint" />
            <mxPoint x="102.75" y="100" as="targetPoint" />
          </mxGeometry>
        </mxCell>
        <mxCell id="U7M4uMnLPEk6Xa6hT6ow-17" value="" style="endArrow=none;html=1;rounded=0;" edge="1" parent="U7M4uMnLPEk6Xa6hT6ow-14">
          <mxGeometry width="50" height="50" relative="1" as="geometry">
            <mxPoint as="sourcePoint" />
            <mxPoint x="34.25" as="targetPoint" />
          </mxGeometry>
        </mxCell>
        <mxCell id="U7M4uMnLPEk6Xa6hT6ow-18" value="" style="endArrow=none;html=1;rounded=0;" edge="1" parent="U7M4uMnLPEk6Xa6hT6ow-14">
          <mxGeometry width="50" height="50" relative="1" as="geometry">
            <mxPoint y="100" as="sourcePoint" />
            <mxPoint x="34.25" y="100" as="targetPoint" />
          </mxGeometry>
        </mxCell>
        <mxCell id="U7M4uMnLPEk6Xa6hT6ow-19" value="" style="endArrow=none;html=1;rounded=0;" edge="1" parent="U7M4uMnLPEk6Xa6hT6ow-14">
          <mxGeometry width="50" height="50" relative="1" as="geometry">
            <mxPoint x="102.75" as="sourcePoint" />
            <mxPoint x="137" as="targetPoint" />
          </mxGeometry>
        </mxCell>
        <mxCell id="U7M4uMnLPEk6Xa6hT6ow-20" value="" style="endArrow=none;html=1;rounded=0;" edge="1" parent="U7M4uMnLPEk6Xa6hT6ow-14">
          <mxGeometry width="50" height="50" relative="1" as="geometry">
            <mxPoint x="102.75" y="100" as="sourcePoint" />
            <mxPoint x="137" y="100" as="targetPoint" />
          </mxGeometry>
        </mxCell>
        <mxCell id="U7M4uMnLPEk6Xa6hT6ow-21" value="&lt;b&gt;&lt;font style=&quot;font-size: 14px;&quot;&gt;Crossbar&lt;/font&gt;&lt;/b&gt;" style="text;html=1;align=center;verticalAlign=middle;resizable=0;points=[];autosize=1;strokeColor=none;fillColor=none;" vertex="1" parent="U7M4uMnLPEk6Xa6hT6ow-12">
          <mxGeometry x="53" y="145" width="80" height="30" as="geometry" />
        </mxCell>
        <mxCell id="U7M4uMnLPEk6Xa6hT6ow-22" value="" style="group" vertex="1" connectable="0" parent="1">
          <mxGeometry x="-510" y="-140" width="170" height="105" as="geometry" />
        </mxCell>
        <mxCell id="U7M4uMnLPEk6Xa6hT6ow-23" value="" style="rounded=0;whiteSpace=wrap;html=1;fillColor=#C4C4C4;fontColor=#333333;strokeColor=#030303;" vertex="1" parent="U7M4uMnLPEk6Xa6hT6ow-22">
          <mxGeometry width="170" height="100" as="geometry" />
        </mxCell>
        <mxCell id="U7M4uMnLPEk6Xa6hT6ow-24" value="" style="group" vertex="1" connectable="0" parent="U7M4uMnLPEk6Xa6hT6ow-22">
          <mxGeometry x="5" y="5.75" width="154.75" height="99.25" as="geometry" />
        </mxCell>
        <mxCell id="U7M4uMnLPEk6Xa6hT6ow-25" value="" style="group" vertex="1" connectable="0" parent="U7M4uMnLPEk6Xa6hT6ow-24">
          <mxGeometry y="14.25" width="95" height="60" as="geometry" />
        </mxCell>
        <mxCell id="U7M4uMnLPEk6Xa6hT6ow-26" value="" style="group" vertex="1" connectable="0" parent="U7M4uMnLPEk6Xa6hT6ow-25">
          <mxGeometry width="95" height="10" as="geometry" />
        </mxCell>
        <mxCell id="U7M4uMnLPEk6Xa6hT6ow-27" value="" style="rounded=0;whiteSpace=wrap;html=1;" vertex="1" parent="U7M4uMnLPEk6Xa6hT6ow-26">
          <mxGeometry x="76" width="19" height="10" as="geometry" />
        </mxCell>
        <mxCell id="U7M4uMnLPEk6Xa6hT6ow-28" value="" style="rounded=0;whiteSpace=wrap;html=1;" vertex="1" parent="U7M4uMnLPEk6Xa6hT6ow-26">
          <mxGeometry x="57" width="19" height="10" as="geometry" />
        </mxCell>
        <mxCell id="U7M4uMnLPEk6Xa6hT6ow-29" value="" style="rounded=0;whiteSpace=wrap;html=1;" vertex="1" parent="U7M4uMnLPEk6Xa6hT6ow-26">
          <mxGeometry x="38" width="19" height="10" as="geometry" />
        </mxCell>
        <mxCell id="U7M4uMnLPEk6Xa6hT6ow-30" value="" style="rounded=0;whiteSpace=wrap;html=1;" vertex="1" parent="U7M4uMnLPEk6Xa6hT6ow-26">
          <mxGeometry x="19" width="19" height="10" as="geometry" />
        </mxCell>
        <mxCell id="U7M4uMnLPEk6Xa6hT6ow-31" value="" style="rounded=0;whiteSpace=wrap;html=1;" vertex="1" parent="U7M4uMnLPEk6Xa6hT6ow-26">
          <mxGeometry width="19" height="10" as="geometry" />
        </mxCell>
        <mxCell id="U7M4uMnLPEk6Xa6hT6ow-32" value="" style="group" vertex="1" connectable="0" parent="U7M4uMnLPEk6Xa6hT6ow-25">
          <mxGeometry y="20" width="95" height="10" as="geometry" />
        </mxCell>
        <mxCell id="U7M4uMnLPEk6Xa6hT6ow-33" value="" style="rounded=0;whiteSpace=wrap;html=1;" vertex="1" parent="U7M4uMnLPEk6Xa6hT6ow-32">
          <mxGeometry x="76" width="19" height="10" as="geometry" />
        </mxCell>
        <mxCell id="U7M4uMnLPEk6Xa6hT6ow-34" value="" style="rounded=0;whiteSpace=wrap;html=1;" vertex="1" parent="U7M4uMnLPEk6Xa6hT6ow-32">
          <mxGeometry x="57" width="19" height="10" as="geometry" />
        </mxCell>
        <mxCell id="U7M4uMnLPEk6Xa6hT6ow-35" value="" style="rounded=0;whiteSpace=wrap;html=1;" vertex="1" parent="U7M4uMnLPEk6Xa6hT6ow-32">
          <mxGeometry x="38" width="19" height="10" as="geometry" />
        </mxCell>
        <mxCell id="U7M4uMnLPEk6Xa6hT6ow-36" value="" style="rounded=0;whiteSpace=wrap;html=1;" vertex="1" parent="U7M4uMnLPEk6Xa6hT6ow-32">
          <mxGeometry x="19" width="19" height="10" as="geometry" />
        </mxCell>
        <mxCell id="U7M4uMnLPEk6Xa6hT6ow-37" value="" style="rounded=0;whiteSpace=wrap;html=1;" vertex="1" parent="U7M4uMnLPEk6Xa6hT6ow-32">
          <mxGeometry width="19" height="10" as="geometry" />
        </mxCell>
        <mxCell id="U7M4uMnLPEk6Xa6hT6ow-38" value="" style="group" vertex="1" connectable="0" parent="U7M4uMnLPEk6Xa6hT6ow-25">
          <mxGeometry y="50" width="95" height="10" as="geometry" />
        </mxCell>
        <mxCell id="U7M4uMnLPEk6Xa6hT6ow-39" value="" style="rounded=0;whiteSpace=wrap;html=1;" vertex="1" parent="U7M4uMnLPEk6Xa6hT6ow-38">
          <mxGeometry x="76" width="19" height="10" as="geometry" />
        </mxCell>
        <mxCell id="U7M4uMnLPEk6Xa6hT6ow-40" value="" style="rounded=0;whiteSpace=wrap;html=1;" vertex="1" parent="U7M4uMnLPEk6Xa6hT6ow-38">
          <mxGeometry x="57" width="19" height="10" as="geometry" />
        </mxCell>
        <mxCell id="U7M4uMnLPEk6Xa6hT6ow-41" value="" style="rounded=0;whiteSpace=wrap;html=1;" vertex="1" parent="U7M4uMnLPEk6Xa6hT6ow-38">
          <mxGeometry x="38" width="19" height="10" as="geometry" />
        </mxCell>
        <mxCell id="U7M4uMnLPEk6Xa6hT6ow-42" value="" style="rounded=0;whiteSpace=wrap;html=1;" vertex="1" parent="U7M4uMnLPEk6Xa6hT6ow-38">
          <mxGeometry x="19" width="19" height="10" as="geometry" />
        </mxCell>
        <mxCell id="U7M4uMnLPEk6Xa6hT6ow-43" value="" style="rounded=0;whiteSpace=wrap;html=1;" vertex="1" parent="U7M4uMnLPEk6Xa6hT6ow-38">
          <mxGeometry width="19" height="10" as="geometry" />
        </mxCell>
        <mxCell id="U7M4uMnLPEk6Xa6hT6ow-44" value="&lt;font style=&quot;font-size: 15px;&quot;&gt;...&lt;/font&gt;" style="text;html=1;align=center;verticalAlign=middle;resizable=0;points=[];autosize=1;strokeColor=none;fillColor=none;rotation=90;" vertex="1" parent="U7M4uMnLPEk6Xa6hT6ow-25">
          <mxGeometry x="33" y="25" width="40" height="30" as="geometry" />
        </mxCell>
        <mxCell id="U7M4uMnLPEk6Xa6hT6ow-45" value="" style="shape=trapezoid;perimeter=trapezoidPerimeter;whiteSpace=wrap;html=1;fixedSize=1;rotation=90;" vertex="1" parent="U7M4uMnLPEk6Xa6hT6ow-24">
          <mxGeometry x="93" y="26.75" width="88.5" height="35" as="geometry" />
        </mxCell>
        <mxCell id="U7M4uMnLPEk6Xa6hT6ow-46" style="edgeStyle=orthogonalEdgeStyle;rounded=0;orthogonalLoop=1;jettySize=auto;html=1;exitX=1;exitY=0.5;exitDx=0;exitDy=0;entryX=0.224;entryY=1.001;entryDx=0;entryDy=0;entryPerimeter=0;" edge="1" parent="U7M4uMnLPEk6Xa6hT6ow-24" source="U7M4uMnLPEk6Xa6hT6ow-27" target="U7M4uMnLPEk6Xa6hT6ow-45">
          <mxGeometry relative="1" as="geometry" />
        </mxCell>
        <mxCell id="U7M4uMnLPEk6Xa6hT6ow-47" style="edgeStyle=orthogonalEdgeStyle;rounded=0;orthogonalLoop=1;jettySize=auto;html=1;exitX=1;exitY=0.5;exitDx=0;exitDy=0;entryX=0.448;entryY=1.015;entryDx=0;entryDy=0;entryPerimeter=0;" edge="1" parent="U7M4uMnLPEk6Xa6hT6ow-24" source="U7M4uMnLPEk6Xa6hT6ow-33" target="U7M4uMnLPEk6Xa6hT6ow-45">
          <mxGeometry relative="1" as="geometry" />
        </mxCell>
        <mxCell id="U7M4uMnLPEk6Xa6hT6ow-48" style="edgeStyle=orthogonalEdgeStyle;rounded=0;orthogonalLoop=1;jettySize=auto;html=1;exitX=1;exitY=0.5;exitDx=0;exitDy=0;entryX=0.775;entryY=1.01;entryDx=0;entryDy=0;entryPerimeter=0;" edge="1" parent="U7M4uMnLPEk6Xa6hT6ow-24" source="U7M4uMnLPEk6Xa6hT6ow-39" target="U7M4uMnLPEk6Xa6hT6ow-45">
          <mxGeometry relative="1" as="geometry" />
        </mxCell>
        <mxCell id="U7M4uMnLPEk6Xa6hT6ow-49" value="&lt;font style=&quot;font-size: 15px;&quot;&gt;&lt;b&gt;Input Buffer&lt;/b&gt;&lt;/font&gt;" style="text;html=1;align=center;verticalAlign=middle;resizable=0;points=[];autosize=1;strokeColor=none;fillColor=none;" vertex="1" parent="U7M4uMnLPEk6Xa6hT6ow-24">
          <mxGeometry x="10" y="68.25" width="110" height="30" as="geometry" />
        </mxCell>
        <mxCell id="U7M4uMnLPEk6Xa6hT6ow-50" value="" style="group" vertex="1" connectable="0" parent="1">
          <mxGeometry x="-509" width="170" height="105" as="geometry" />
        </mxCell>
        <mxCell id="U7M4uMnLPEk6Xa6hT6ow-51" value="" style="rounded=0;whiteSpace=wrap;html=1;fillColor=#C4C4C4;fontColor=#333333;strokeColor=#030303;" vertex="1" parent="U7M4uMnLPEk6Xa6hT6ow-50">
          <mxGeometry width="170" height="100" as="geometry" />
        </mxCell>
        <mxCell id="U7M4uMnLPEk6Xa6hT6ow-52" value="" style="group" vertex="1" connectable="0" parent="U7M4uMnLPEk6Xa6hT6ow-50">
          <mxGeometry x="7" y="6" width="154.75" height="88.5" as="geometry" />
        </mxCell>
        <mxCell id="U7M4uMnLPEk6Xa6hT6ow-53" value="" style="group" vertex="1" connectable="0" parent="U7M4uMnLPEk6Xa6hT6ow-52">
          <mxGeometry y="14.25" width="95" height="60" as="geometry" />
        </mxCell>
        <mxCell id="U7M4uMnLPEk6Xa6hT6ow-54" value="" style="group" vertex="1" connectable="0" parent="U7M4uMnLPEk6Xa6hT6ow-53">
          <mxGeometry width="95" height="10" as="geometry" />
        </mxCell>
        <mxCell id="U7M4uMnLPEk6Xa6hT6ow-55" value="" style="rounded=0;whiteSpace=wrap;html=1;" vertex="1" parent="U7M4uMnLPEk6Xa6hT6ow-54">
          <mxGeometry x="76" width="19" height="10" as="geometry" />
        </mxCell>
        <mxCell id="U7M4uMnLPEk6Xa6hT6ow-56" value="" style="rounded=0;whiteSpace=wrap;html=1;" vertex="1" parent="U7M4uMnLPEk6Xa6hT6ow-54">
          <mxGeometry x="57" width="19" height="10" as="geometry" />
        </mxCell>
        <mxCell id="U7M4uMnLPEk6Xa6hT6ow-57" value="" style="rounded=0;whiteSpace=wrap;html=1;" vertex="1" parent="U7M4uMnLPEk6Xa6hT6ow-54">
          <mxGeometry x="38" width="19" height="10" as="geometry" />
        </mxCell>
        <mxCell id="U7M4uMnLPEk6Xa6hT6ow-58" value="" style="rounded=0;whiteSpace=wrap;html=1;" vertex="1" parent="U7M4uMnLPEk6Xa6hT6ow-54">
          <mxGeometry x="19" width="19" height="10" as="geometry" />
        </mxCell>
        <mxCell id="U7M4uMnLPEk6Xa6hT6ow-59" value="" style="rounded=0;whiteSpace=wrap;html=1;" vertex="1" parent="U7M4uMnLPEk6Xa6hT6ow-54">
          <mxGeometry width="19" height="10" as="geometry" />
        </mxCell>
        <mxCell id="U7M4uMnLPEk6Xa6hT6ow-60" value="" style="group" vertex="1" connectable="0" parent="U7M4uMnLPEk6Xa6hT6ow-53">
          <mxGeometry y="20" width="95" height="10" as="geometry" />
        </mxCell>
        <mxCell id="U7M4uMnLPEk6Xa6hT6ow-61" value="" style="rounded=0;whiteSpace=wrap;html=1;" vertex="1" parent="U7M4uMnLPEk6Xa6hT6ow-60">
          <mxGeometry x="76" width="19" height="10" as="geometry" />
        </mxCell>
        <mxCell id="U7M4uMnLPEk6Xa6hT6ow-62" value="" style="rounded=0;whiteSpace=wrap;html=1;" vertex="1" parent="U7M4uMnLPEk6Xa6hT6ow-60">
          <mxGeometry x="57" width="19" height="10" as="geometry" />
        </mxCell>
        <mxCell id="U7M4uMnLPEk6Xa6hT6ow-63" value="" style="rounded=0;whiteSpace=wrap;html=1;" vertex="1" parent="U7M4uMnLPEk6Xa6hT6ow-60">
          <mxGeometry x="38" width="19" height="10" as="geometry" />
        </mxCell>
        <mxCell id="U7M4uMnLPEk6Xa6hT6ow-64" value="" style="rounded=0;whiteSpace=wrap;html=1;" vertex="1" parent="U7M4uMnLPEk6Xa6hT6ow-60">
          <mxGeometry x="19" width="19" height="10" as="geometry" />
        </mxCell>
        <mxCell id="U7M4uMnLPEk6Xa6hT6ow-65" value="" style="rounded=0;whiteSpace=wrap;html=1;" vertex="1" parent="U7M4uMnLPEk6Xa6hT6ow-60">
          <mxGeometry width="19" height="10" as="geometry" />
        </mxCell>
        <mxCell id="U7M4uMnLPEk6Xa6hT6ow-66" value="" style="group" vertex="1" connectable="0" parent="U7M4uMnLPEk6Xa6hT6ow-53">
          <mxGeometry y="50" width="95" height="10" as="geometry" />
        </mxCell>
        <mxCell id="U7M4uMnLPEk6Xa6hT6ow-67" value="" style="rounded=0;whiteSpace=wrap;html=1;" vertex="1" parent="U7M4uMnLPEk6Xa6hT6ow-66">
          <mxGeometry x="76" width="19" height="10" as="geometry" />
        </mxCell>
        <mxCell id="U7M4uMnLPEk6Xa6hT6ow-68" value="" style="rounded=0;whiteSpace=wrap;html=1;" vertex="1" parent="U7M4uMnLPEk6Xa6hT6ow-66">
          <mxGeometry x="57" width="19" height="10" as="geometry" />
        </mxCell>
        <mxCell id="U7M4uMnLPEk6Xa6hT6ow-69" value="" style="rounded=0;whiteSpace=wrap;html=1;" vertex="1" parent="U7M4uMnLPEk6Xa6hT6ow-66">
          <mxGeometry x="38" width="19" height="10" as="geometry" />
        </mxCell>
        <mxCell id="U7M4uMnLPEk6Xa6hT6ow-70" value="" style="rounded=0;whiteSpace=wrap;html=1;" vertex="1" parent="U7M4uMnLPEk6Xa6hT6ow-66">
          <mxGeometry x="19" width="19" height="10" as="geometry" />
        </mxCell>
        <mxCell id="U7M4uMnLPEk6Xa6hT6ow-71" value="" style="rounded=0;whiteSpace=wrap;html=1;" vertex="1" parent="U7M4uMnLPEk6Xa6hT6ow-66">
          <mxGeometry width="19" height="10" as="geometry" />
        </mxCell>
        <mxCell id="U7M4uMnLPEk6Xa6hT6ow-72" value="&lt;font style=&quot;font-size: 15px;&quot;&gt;...&lt;/font&gt;" style="text;html=1;align=center;verticalAlign=middle;resizable=0;points=[];autosize=1;strokeColor=none;fillColor=none;rotation=90;" vertex="1" parent="U7M4uMnLPEk6Xa6hT6ow-53">
          <mxGeometry x="33" y="25" width="40" height="30" as="geometry" />
        </mxCell>
        <mxCell id="U7M4uMnLPEk6Xa6hT6ow-73" value="" style="shape=trapezoid;perimeter=trapezoidPerimeter;whiteSpace=wrap;html=1;fixedSize=1;rotation=90;" vertex="1" parent="U7M4uMnLPEk6Xa6hT6ow-52">
          <mxGeometry x="93" y="26.75" width="88.5" height="35" as="geometry" />
        </mxCell>
        <mxCell id="U7M4uMnLPEk6Xa6hT6ow-74" style="edgeStyle=orthogonalEdgeStyle;rounded=0;orthogonalLoop=1;jettySize=auto;html=1;exitX=1;exitY=0.5;exitDx=0;exitDy=0;entryX=0.224;entryY=1.001;entryDx=0;entryDy=0;entryPerimeter=0;" edge="1" parent="U7M4uMnLPEk6Xa6hT6ow-52" source="U7M4uMnLPEk6Xa6hT6ow-55" target="U7M4uMnLPEk6Xa6hT6ow-73">
          <mxGeometry relative="1" as="geometry" />
        </mxCell>
        <mxCell id="U7M4uMnLPEk6Xa6hT6ow-75" style="edgeStyle=orthogonalEdgeStyle;rounded=0;orthogonalLoop=1;jettySize=auto;html=1;exitX=1;exitY=0.5;exitDx=0;exitDy=0;entryX=0.448;entryY=1.015;entryDx=0;entryDy=0;entryPerimeter=0;" edge="1" parent="U7M4uMnLPEk6Xa6hT6ow-52" source="U7M4uMnLPEk6Xa6hT6ow-61" target="U7M4uMnLPEk6Xa6hT6ow-73">
          <mxGeometry relative="1" as="geometry" />
        </mxCell>
        <mxCell id="U7M4uMnLPEk6Xa6hT6ow-76" style="edgeStyle=orthogonalEdgeStyle;rounded=0;orthogonalLoop=1;jettySize=auto;html=1;exitX=1;exitY=0.5;exitDx=0;exitDy=0;entryX=0.775;entryY=1.01;entryDx=0;entryDy=0;entryPerimeter=0;" edge="1" parent="U7M4uMnLPEk6Xa6hT6ow-52" source="U7M4uMnLPEk6Xa6hT6ow-67" target="U7M4uMnLPEk6Xa6hT6ow-73">
          <mxGeometry relative="1" as="geometry" />
        </mxCell>
        <mxCell id="U7M4uMnLPEk6Xa6hT6ow-77" value="&lt;font style=&quot;font-size: 15px;&quot;&gt;&lt;b&gt;Input Buffer&lt;/b&gt;&lt;/font&gt;" style="text;html=1;align=center;verticalAlign=middle;resizable=0;points=[];autosize=1;strokeColor=none;fillColor=none;" vertex="1" parent="U7M4uMnLPEk6Xa6hT6ow-50">
          <mxGeometry x="17" y="75" width="110" height="30" as="geometry" />
        </mxCell>
        <mxCell id="U7M4uMnLPEk6Xa6hT6ow-78" style="edgeStyle=orthogonalEdgeStyle;rounded=0;orthogonalLoop=1;jettySize=auto;html=1;exitX=1;exitY=0.5;exitDx=0;exitDy=0;entryX=0;entryY=0.25;entryDx=0;entryDy=0;" edge="1" parent="1" source="U7M4uMnLPEk6Xa6hT6ow-23" target="U7M4uMnLPEk6Xa6hT6ow-13">
          <mxGeometry relative="1" as="geometry" />
        </mxCell>
        <mxCell id="U7M4uMnLPEk6Xa6hT6ow-79" style="edgeStyle=orthogonalEdgeStyle;rounded=0;orthogonalLoop=1;jettySize=auto;html=1;exitX=1;exitY=0.5;exitDx=0;exitDy=0;entryX=0;entryY=0.75;entryDx=0;entryDy=0;" edge="1" parent="1" source="U7M4uMnLPEk6Xa6hT6ow-51" target="U7M4uMnLPEk6Xa6hT6ow-13">
          <mxGeometry relative="1" as="geometry" />
        </mxCell>
        <mxCell id="U7M4uMnLPEk6Xa6hT6ow-80" value="" style="endArrow=classic;html=1;rounded=0;entryX=0;entryY=0.5;entryDx=0;entryDy=0;" edge="1" parent="1" target="U7M4uMnLPEk6Xa6hT6ow-23">
          <mxGeometry width="50" height="50" relative="1" as="geometry">
            <mxPoint x="-550" y="-90" as="sourcePoint" />
            <mxPoint x="-670" y="-100" as="targetPoint" />
          </mxGeometry>
        </mxCell>
        <mxCell id="U7M4uMnLPEk6Xa6hT6ow-81" value="" style="endArrow=classic;html=1;rounded=0;entryX=0;entryY=0.5;entryDx=0;entryDy=0;" edge="1" parent="1" target="U7M4uMnLPEk6Xa6hT6ow-51">
          <mxGeometry width="50" height="50" relative="1" as="geometry">
            <mxPoint x="-550" y="50" as="sourcePoint" />
            <mxPoint x="-523" y="50" as="targetPoint" />
          </mxGeometry>
        </mxCell>
        <mxCell id="U7M4uMnLPEk6Xa6hT6ow-82" value="" style="endArrow=classic;html=1;rounded=0;entryX=0;entryY=0.5;entryDx=0;entryDy=0;" edge="1" parent="1">
          <mxGeometry width="50" height="50" relative="1" as="geometry">
            <mxPoint x="-79" y="-70" as="sourcePoint" />
            <mxPoint x="-39" y="-70" as="targetPoint" />
          </mxGeometry>
        </mxCell>
        <mxCell id="U7M4uMnLPEk6Xa6hT6ow-83" value="" style="endArrow=classic;html=1;rounded=0;entryX=0;entryY=0.5;entryDx=0;entryDy=0;" edge="1" parent="1">
          <mxGeometry width="50" height="50" relative="1" as="geometry">
            <mxPoint x="-79" y="-40" as="sourcePoint" />
            <mxPoint x="-39" y="-40" as="targetPoint" />
          </mxGeometry>
        </mxCell>
        <mxCell id="U7M4uMnLPEk6Xa6hT6ow-84" value="" style="endArrow=classic;html=1;rounded=0;entryX=0;entryY=0.5;entryDx=0;entryDy=0;" edge="1" parent="1">
          <mxGeometry width="50" height="50" relative="1" as="geometry">
            <mxPoint x="-79" y="-10" as="sourcePoint" />
            <mxPoint x="-39" y="-10" as="targetPoint" />
          </mxGeometry>
        </mxCell>
        <mxCell id="U7M4uMnLPEk6Xa6hT6ow-85" value="" style="endArrow=classic;html=1;rounded=0;entryX=0;entryY=0.5;entryDx=0;entryDy=0;" edge="1" parent="1">
          <mxGeometry width="50" height="50" relative="1" as="geometry">
            <mxPoint x="-79" y="20" as="sourcePoint" />
            <mxPoint x="-39" y="20" as="targetPoint" />
          </mxGeometry>
        </mxCell>
        <mxCell id="U7M4uMnLPEk6Xa6hT6ow-86" value="" style="endArrow=none;html=1;rounded=0;entryX=0;entryY=0.5;entryDx=0;entryDy=0;startArrow=classic;startFill=1;endFill=0;" edge="1" parent="1">
          <mxGeometry width="50" height="50" relative="1" as="geometry">
            <mxPoint x="-112" y="-226" as="sourcePoint" />
            <mxPoint x="-72" y="-226" as="targetPoint" />
          </mxGeometry>
        </mxCell>
        <mxCell id="U7M4uMnLPEk6Xa6hT6ow-87" value="" style="endArrow=none;html=1;rounded=0;entryX=0;entryY=0.5;entryDx=0;entryDy=0;startArrow=classic;startFill=1;endFill=0;" edge="1" parent="1">
          <mxGeometry width="50" height="50" relative="1" as="geometry">
            <mxPoint x="-112" y="-215" as="sourcePoint" />
            <mxPoint x="-72" y="-215" as="targetPoint" />
          </mxGeometry>
        </mxCell>
        <mxCell id="U7M4uMnLPEk6Xa6hT6ow-88" value="" style="endArrow=none;html=1;rounded=0;entryX=0;entryY=0.5;entryDx=0;entryDy=0;startArrow=classic;startFill=1;endFill=0;" edge="1" parent="1">
          <mxGeometry width="50" height="50" relative="1" as="geometry">
            <mxPoint x="-112" y="-192" as="sourcePoint" />
            <mxPoint x="-72" y="-192" as="targetPoint" />
          </mxGeometry>
        </mxCell>
        <mxCell id="U7M4uMnLPEk6Xa6hT6ow-89" value="..." style="text;html=1;align=center;verticalAlign=middle;resizable=0;points=[];autosize=1;strokeColor=none;fillColor=none;rotation=90;" vertex="1" parent="1">
          <mxGeometry x="-107" y="-220" width="30" height="30" as="geometry" />
        </mxCell>
        <mxCell id="U7M4uMnLPEk6Xa6hT6ow-90" value="&lt;font style=&quot;font-size: 15px;&quot;&gt;&lt;b&gt;Credit-in&lt;/b&gt;&lt;/font&gt;" style="text;html=1;align=center;verticalAlign=middle;resizable=0;points=[];autosize=1;strokeColor=none;fillColor=none;rotation=-90;" vertex="1" parent="1">
          <mxGeometry x="-88" y="-223" width="90" height="30" as="geometry" />
        </mxCell>
        <mxCell id="U7M4uMnLPEk6Xa6hT6ow-91" value="" style="endArrow=classic;html=1;rounded=0;exitX=0.059;exitY=-0.001;exitDx=0;exitDy=0;exitPerimeter=0;" edge="1" parent="1" source="U7M4uMnLPEk6Xa6hT6ow-23">
          <mxGeometry width="50" height="50" relative="1" as="geometry">
            <mxPoint x="-600" y="-140" as="sourcePoint" />
            <mxPoint x="-560" y="-160" as="targetPoint" />
            <Array as="points">
              <mxPoint x="-500" y="-160" />
            </Array>
          </mxGeometry>
        </mxCell>
        <mxCell id="U7M4uMnLPEk6Xa6hT6ow-92" value="&lt;font style=&quot;font-size: 15px;&quot;&gt;&lt;b&gt;Credit-Out&lt;/b&gt;&lt;/font&gt;" style="text;html=1;align=center;verticalAlign=middle;resizable=0;points=[];autosize=1;strokeColor=none;fillColor=none;" vertex="1" parent="1">
          <mxGeometry x="-656" y="-180" width="100" height="30" as="geometry" />
        </mxCell>
        <mxCell id="U7M4uMnLPEk6Xa6hT6ow-94" value="&lt;font style=&quot;font-size: 15px;&quot;&gt;&lt;b&gt;Buffer Write&lt;/b&gt;&lt;/font&gt;" style="text;html=1;align=center;verticalAlign=middle;resizable=0;points=[];autosize=1;strokeColor=none;fillColor=none;rotation=-90;" vertex="1" parent="1">
          <mxGeometry x="-625" y="-40" width="110" height="30" as="geometry" />
        </mxCell>
        <mxCell id="U7M4uMnLPEk6Xa6hT6ow-96" value="&lt;font color=&quot;#828b96&quot; style=&quot;font-size: 17px;&quot;&gt;&lt;b style=&quot;&quot;&gt;LT&lt;/b&gt;&lt;/font&gt;" style="text;html=1;align=center;verticalAlign=middle;resizable=0;points=[];autosize=1;strokeColor=none;fillColor=none;" vertex="1" parent="1">
          <mxGeometry x="-587" y="110" width="40" height="30" as="geometry" />
        </mxCell>
        <mxCell id="U7M4uMnLPEk6Xa6hT6ow-98" value="&lt;font color=&quot;#828b96&quot; style=&quot;font-size: 17px;&quot;&gt;&lt;b style=&quot;&quot;&gt;BW&lt;/b&gt;&lt;/font&gt;" style="text;html=1;align=center;verticalAlign=middle;resizable=0;points=[];autosize=1;strokeColor=none;fillColor=none;" vertex="1" parent="1">
          <mxGeometry x="-459" y="110" width="50" height="30" as="geometry" />
        </mxCell>
        <mxCell id="U7M4uMnLPEk6Xa6hT6ow-100" value="&lt;font color=&quot;#828b96&quot; style=&quot;font-size: 17px;&quot;&gt;&lt;b style=&quot;&quot;&gt;RC&lt;/b&gt;&lt;/font&gt;" style="text;html=1;align=center;verticalAlign=middle;resizable=0;points=[];autosize=1;strokeColor=none;fillColor=none;" vertex="1" parent="1">
          <mxGeometry x="-467" y="-275" width="50" height="30" as="geometry" />
        </mxCell>
        <mxCell id="U7M4uMnLPEk6Xa6hT6ow-103" value="&lt;font color=&quot;#828b96&quot; style=&quot;font-size: 17px;&quot;&gt;&lt;b style=&quot;&quot;&gt;VA&lt;/b&gt;&lt;/font&gt;" style="text;html=1;align=center;verticalAlign=middle;resizable=0;points=[];autosize=1;strokeColor=none;fillColor=none;" vertex="1" parent="1">
          <mxGeometry x="-194" y="-275" width="50" height="30" as="geometry" />
        </mxCell>
        <mxCell id="U7M4uMnLPEk6Xa6hT6ow-104" value="&lt;font color=&quot;#828b96&quot; style=&quot;font-size: 17px;&quot;&gt;&lt;b style=&quot;&quot;&gt;SA&lt;/b&gt;&lt;/font&gt;" style="text;html=1;align=center;verticalAlign=middle;resizable=0;points=[];autosize=1;strokeColor=none;fillColor=none;" vertex="1" parent="1">
          <mxGeometry x="-104" y="-160" width="50" height="30" as="geometry" />
        </mxCell>
        <mxCell id="U7M4uMnLPEk6Xa6hT6ow-106" value="&lt;font color=&quot;#828b96&quot; style=&quot;font-size: 17px;&quot;&gt;&lt;b style=&quot;&quot;&gt;ST&lt;/b&gt;&lt;/font&gt;" style="text;html=1;align=center;verticalAlign=middle;resizable=0;points=[];autosize=1;strokeColor=none;fillColor=none;" vertex="1" parent="1">
          <mxGeometry x="-199" y="80" width="50" height="30" as="geometry" />
        </mxCell>
        <mxCell id="U7M4uMnLPEk6Xa6hT6ow-108" value="&lt;font color=&quot;#828b96&quot; style=&quot;font-size: 17px;&quot;&gt;&lt;b style=&quot;&quot;&gt;LT&lt;/b&gt;&lt;/font&gt;" style="text;html=1;align=center;verticalAlign=middle;resizable=0;points=[];autosize=1;strokeColor=none;fillColor=none;" vertex="1" parent="1">
          <mxGeometry x="-59" y="40" width="40" height="30" as="geometry" />
        </mxCell>
      </root>
    </mxGraphModel>
  </diagram>
</mxfile>
